<svg width="100%" viewBox="0 0 680 860">
  <defs>
    <marker id="arrow" viewBox="0 0 10 10" refX="8" refY="5" markerWidth="6" markerHeight="6" orient="auto-start-reverse">
      <path d="M2 1L8 5L2 9" fill="none" stroke="context-stroke" stroke-width="1.5" stroke-linecap="round" stroke-linejoin="round"></path>
    </marker>
  <mask id="imagine-text-gaps-6iia0r" maskUnits="userSpaceOnUse"><rect x="0" y="0" width="680" height="860" fill="white"></rect><rect x="285.1571350097656" y="17.972179412841797" width="109.68572998046875" height="20.055641174316406" fill="black" rx="2"></rect><rect x="309.2091064453125" y="65.0277328491211" width="61.58176803588867" height="21.94454002380371" fill="black" rx="2"></rect><rect x="248.94537353515625" y="85.97217559814453" width="182.10926818847656" height="20.055641174316406" fill="black" rx="2"></rect><rect x="292.8386535644531" y="141.02772521972656" width="94.32268524169922" height="21.94454002380371" fill="black" rx="2"></rect><rect x="233.42491149902344" y="161.97218322753906" width="213.15016174316406" height="20.055641174316406" fill="black" rx="2"></rect><rect x="275.27191162109375" y="217.02772521972656" width="129.45621490478516" height="21.94454002380371" fill="black" rx="2"></rect><rect x="240.6263427734375" y="237.97218322753906" width="198.747314453125" height="20.055641174316406" fill="black" rx="2"></rect><rect x="295.41229248046875" y="293.0277404785156" width="89.17543029785156" height="21.94454002380371" fill="black" rx="2"></rect><rect x="232.0397186279297" y="313.97216796875" width="215.92054748535156" height="20.055641174316406" fill="black" rx="2"></rect><rect x="281.82794189453125" y="369.0277404785156" width="116.34410095214844" height="21.94454002380371" fill="black" rx="2"></rect><rect x="235.9906768798828" y="389.97216796875" width="208.0186767578125" height="20.055641174316406" fill="black" rx="2"></rect><rect x="279.07330322265625" y="445.0277404785156" width="121.8533935546875" height="21.94454002380371" fill="black" rx="2"></rect><rect x="244.1208038330078" y="465.97216796875" width="191.75839233398438" height="20.055641174316406" fill="black" rx="2"></rect><rect x="296.9863586425781" y="521.0277099609375" width="86.02727508544922" height="21.94454002380371" fill="black" rx="2"></rect><rect x="253.95883178710938" y="541.97216796875" width="172.08236694335938" height="20.055641174316406" fill="black" rx="2"></rect><rect x="290.3515930175781" y="597.0277099609375" width="99.29678344726562" height="21.94454002380371" fill="black" rx="2"></rect><rect x="232.54342651367188" y="617.97216796875" width="214.91314697265625" height="20.055641174316406" fill="black" rx="2"></rect><rect x="300.331298828125" y="673.0277099609375" width="79.33741760253906" height="21.94454002380371" fill="black" rx="2"></rect><rect x="236.22677612304688" y="693.97216796875" width="207.54644775390625" height="20.055641174316406" fill="black" rx="2"></rect><rect x="307.8081970214844" y="737.97216796875" width="64.38363647460938" height="20.055641174316406" fill="black" rx="2"></rect><rect x="94.11109924316406" y="781.97216796875" width="72.83645629882812" height="20.055641174316406" fill="black" rx="2"></rect><rect x="204.11109924316406" y="781.97216796875" width="108.8514633178711" height="20.055641174316406" fill="black" rx="2"></rect><rect x="352.1111145019531" y="781.97216796875" width="76.89759063720703" height="20.055641174316406" fill="black" rx="2"></rect><rect x="467.1111145019531" y="781.97216796875" width="36.90015411376953" height="20.055641174316406" fill="black" rx="2"></rect><rect x="566.111083984375" y="589.97216796875" width="45.541866302490234" height="20.055641174316406" fill="black" rx="2"></rect><rect x="566.111083984375" y="603.97216796875" width="26.983434677124023" height="20.055641174316406" fill="black" rx="2"></rect><rect x="91.20271301269531" y="181.97218322753906" width="33.594581604003906" height="20.055641174316406" fill="black" rx="2"></rect></mask></defs>

  <!-- Request label -->
  <text class="ts" x="340" y="28" text-anchor="middle" dominant-baseline="central">incoming request</text>
  <line x1="340" y1="36" x2="340" y2="54" class="arr" marker-end="url(#arrow)" mask="url(#imagine-text-gaps-6iia0r)"></line>

  <!-- 1 Auth -->
  <g class="node c-gray">
    <rect x="170" y="56" width="340" height="56" rx="8" stroke-width="0.5"></rect>
    <text class="th" x="340" y="76" text-anchor="middle" dominant-baseline="central">01  Auth</text>
    <text class="ts" x="340" y="96" text-anchor="middle" dominant-baseline="central">API key → user + team identity</text>
  </g>
  <line x1="340" y1="112" x2="340" y2="130" class="arr" marker-end="url(#arrow)"></line>

  <!-- 2 Rate limit -->
  <g class="node c-gray">
    <rect x="170" y="132" width="340" height="56" rx="8" stroke-width="0.5"></rect>
    <text class="th" x="340" y="152" text-anchor="middle" dominant-baseline="central">02  Rate limit</text>
    <text class="ts" x="340" y="172" text-anchor="middle" dominant-baseline="central">RPM + TPM budgets per user / team</text>
  </g>
  <line x1="340" y1="188" x2="340" y2="206" class="arr" marker-end="url(#arrow)"></line>

  <!-- 3 Content policy -->
  <g class="node c-coral">
    <rect x="170" y="208" width="340" height="56" rx="8" stroke-width="0.5"></rect>
    <text class="th" x="340" y="228" text-anchor="middle" dominant-baseline="central">03  Content policy</text>
    <text class="ts" x="340" y="248" text-anchor="middle" dominant-baseline="central">Block injections, oversized inputs</text>
  </g>
  <line x1="340" y1="264" x2="340" y2="282" class="arr" marker-end="url(#arrow)"></line>

  <!-- 4 PII scrub -->
  <g class="node c-coral">
    <rect x="170" y="284" width="340" height="56" rx="8" stroke-width="0.5"></rect>
    <text class="th" x="340" y="304" text-anchor="middle" dominant-baseline="central">04  PII scrub</text>
    <text class="ts" x="340" y="324" text-anchor="middle" dominant-baseline="central">Presidio NLP + regex → placeholders</text>
  </g>
  <line x1="340" y1="340" x2="340" y2="358" class="arr" marker-end="url(#arrow)"></line>

  <!-- 5 RAG -->
  <g class="node c-teal">
    <rect x="170" y="360" width="340" height="56" rx="8" stroke-width="0.5"></rect>
    <text class="th" x="340" y="380" text-anchor="middle" dominant-baseline="central">05  RAG context</text>
    <text class="ts" x="340" y="400" text-anchor="middle" dominant-baseline="central">ChromaDB top-K → system prompt</text>
  </g>
  <line x1="340" y1="416" x2="340" y2="434" class="arr" marker-end="url(#arrow)"></line>

  <!-- 6 Cache -->
  <g class="node c-teal">
    <rect x="170" y="436" width="340" height="56" rx="8" stroke-width="0.5"></rect>
    <text class="th" x="340" y="456" text-anchor="middle" dominant-baseline="central">06  Cache lookup</text>
    <text class="ts" x="340" y="476" text-anchor="middle" dominant-baseline="central">Exact match → return early if hit</text>
  </g>
  <line x1="340" y1="492" x2="340" y2="510" class="arr" marker-end="url(#arrow)"></line>

  <!-- 7 LLM call -->
  <g class="node c-purple">
    <rect x="170" y="512" width="340" height="56" rx="8" stroke-width="0.5"></rect>
    <text class="th" x="340" y="532" text-anchor="middle" dominant-baseline="central">07  LLM call</text>
    <text class="ts" x="340" y="552" text-anchor="middle" dominant-baseline="central">LiteLLM + fallbacks + retries</text>
  </g>
  <line x1="340" y1="568" x2="340" y2="586" class="arr" marker-end="url(#arrow)"></line>

  <!-- 8 PII restore -->
  <g class="node c-coral">
    <rect x="170" y="588" width="340" height="56" rx="8" stroke-width="0.5"></rect>
    <text class="th" x="340" y="608" text-anchor="middle" dominant-baseline="central">08  PII restore</text>
    <text class="ts" x="340" y="628" text-anchor="middle" dominant-baseline="central">Placeholders → originals in response</text>
  </g>
  <line x1="340" y1="644" x2="340" y2="662" class="arr" marker-end="url(#arrow)"></line>

  <!-- 9 Record -->
  <g class="node c-gray">
    <rect x="170" y="664" width="340" height="56" rx="8" stroke-width="0.5"></rect>
    <text class="th" x="340" y="684" text-anchor="middle" dominant-baseline="central">09  Record</text>
    <text class="ts" x="340" y="704" text-anchor="middle" dominant-baseline="central">DB + Prometheus + Langfuse trace</text>
  </g>

  <line x1="340" y1="720" x2="340" y2="738" class="arr" marker-end="url(#arrow)" mask="url(#imagine-text-gaps-6iia0r)"></line>
  <text class="ts" x="340" y="748" text-anchor="middle" dominant-baseline="central">response</text>

  <!-- Legend -->
  <g class="c-gray"><rect x="82" y="786" width="12" height="12" rx="2" stroke-width="0.5"></rect></g>
  <text class="ts" x="100" y="792" dominant-baseline="central">auth / infra</text>
  <g class="c-coral"><rect x="192" y="786" width="12" height="12" rx="2" stroke-width="0.5"></rect></g>
  <text class="ts" x="210" y="792" dominant-baseline="central">security / privacy</text>
  <g class="c-teal"><rect x="340" y="786" width="12" height="12" rx="2" stroke-width="0.5"></rect></g>
  <text class="ts" x="358" y="792" dominant-baseline="central">enrichment</text>
  <g class="c-purple"><rect x="455" y="786" width="12" height="12" rx="2" stroke-width="0.5"></rect></g>
  <text class="ts" x="473" y="792" dominant-baseline="central">LLM</text>

  <!-- Cache hit bypass arrow -->
  <path d="M510 464 L560 464 L560 738 L510 738" fill="none" stroke="#1D9E75" stroke-width="0.5" stroke-dasharray="4 3" marker-end="url(#arrow)"></path>
  <text class="ts" x="572" y="600" text-anchor="start" dominant-baseline="central">cache</text>
  <text class="ts" x="572" y="614" text-anchor="start" dominant-baseline="central">hit</text>
</svg>